<svg width="43" height="44" viewBox="0 0 43 44" fill="none" xmlns="http://www.w3.org/2000/svg">
<path opacity="0.6" d="M21.5 43.7021C25.7267 43.7021 29.8584 42.4487 33.3727 40.1005C36.8871 37.7523 39.6262 34.4147 41.2436 30.5098C42.8611 26.6049 43.2843 22.308 42.4597 18.1626C41.6352 14.0171 39.5998 10.2093 36.6111 7.22059C33.6224 4.2319 29.8146 2.19657 25.6692 1.37199C21.5237 0.54741 17.2269 0.970613 13.3219 2.58808C9.41702 4.20555 6.07943 6.94465 3.73122 10.459C1.38302 13.9733 0.129672 18.1051 0.129672 22.3317L21.5 22.3317L21.5 43.7021Z" fill="#002478"/>
<circle opacity="0.9" cx="21.5" cy="22.3317" r="10.5772" fill="#002478"/>
<path d="M23.4648 20.8155C24.7982 21.5853 24.7982 23.5098 23.4648 24.2796L22.3414 24.9283C21.0081 25.6981 19.3414 24.7358 19.3414 23.1962L19.3414 21.899C19.3414 20.3594 21.0081 19.3971 22.3414 20.1669L23.4648 20.8155Z" fill="#B59C67"/>
</svg>
