<svg width="99" height="99" viewBox="0 0 99 99" fill="none" xmlns="http://www.w3.org/2000/svg">
<path opacity="0.6" d="M49.5 99C59.2902 99 68.8605 96.0969 77.0007 90.6577C85.141 85.2186 91.4855 77.4878 95.232 68.4428C98.9786 59.3979 99.9588 49.4451 98.0489 39.843C96.1389 30.241 91.4245 21.4209 84.5018 14.4982C77.5791 7.57551 68.759 2.8611 59.157 0.951127C49.5549 -0.958842 39.6021 0.0214228 30.5572 3.76796C21.5122 7.5145 13.7814 13.859 8.34225 21.9993C2.90312 30.1395 -1.73577e-06 39.7098 -2.16371e-06 49.5L49.5 49.5L49.5 99Z" fill="white"/>
<circle opacity="0.9" cx="49.5" cy="49.5" r="24.5" fill="white"/>
<path d="M58 48.2679C59.3333 49.0378 59.3333 50.9623 58 51.7321L47.5 57.7942C46.1667 58.564 44.5 57.6018 44.5 56.0622L44.5 43.9378C44.5 42.3982 46.1667 41.436 47.5 42.2058L58 48.2679Z" fill="#B59C67"/>
</svg>
