<?xml version="1.0" encoding="utf-8"?>
<!-- Generator: Adobe Illustrator 21.0.0, SVG Export Plug-In . SVG Version: 6.00 Build 0)  -->
<svg version="1.1" id="Слой_2" xmlns="http://www.w3.org/2000/svg" xmlns:xlink="http://www.w3.org/1999/xlink" x="0px" y="0px"
	 viewBox="0 0 1440.7 1440" style="enable-background:new 0 0 1440.7 1440;" xml:space="preserve">
<style type="text/css">
	.st0{fill:#FFFFFF;}
	.st1{fill:#0079C1;}
	.st2{fill:#006AA9;}
	.st3{fill:#FEFEFE;}
</style>
<rect class="st0" width="1440.7" height="1440.7"/>
<g>
	<path class="st1" d="M1159.9,469.1v472.3H280.8V469.1H1159.9 M1185.9,443.1H254.8v524.3h931.2V443.1L1185.9,443.1z"/>
</g>
<g>
	<g>
		<g>
			<path class="st2" d="M967.9,871.7V720.8h12.4v134.7L1089,720.8h12.2v150.9h-12.4V737L980.3,871.7H967.9z"/>
		</g>
	</g>
	<g>
		<g>
			<path class="st2" d="M648,871.8V720.9h64.3c19.8,0,35.7,4.1,47.7,12.4c12.1,8.3,18.1,19.7,18.1,34.2c0,15.2-6.6,27.1-19.9,35.5
				c-13.3,8.4-29.7,12.6-49.3,12.6h-47.9v56.3H648z M661.1,805.2h48.6c16.5,0,29.9-3.4,40-10.2c10.1-6.8,15.2-15.9,15.2-27.3
				c0-11.6-4.9-20.6-14.6-26.9c-9.7-6.3-22.8-9.5-39.1-9.5h-50.1V805.2z"/>
		</g>
	</g>
	<g>
		<g>
			<path class="st2" d="M932.7,851.1c-15.1,15.4-34.5,23.1-58.2,23.1c-23.7,0-43-7.7-58-23c-15-15.3-22.5-33.7-22.5-55.1
				c0-21.3,7.6-39.6,22.7-55c15.1-15.4,34.5-23.1,58.2-23.1c23.7,0,43,7.7,58,23c15,15.3,22.5,33.7,22.5,55.1
				C955.3,817.4,947.8,835.8,932.7,851.1z M826,844.2c13.1,13.2,29.4,19.8,48.9,19.8c19.6,0,35.8-6.5,48.7-19.6
				c12.9-13.1,19.4-29.2,19.4-48.3c0-18.8-6.5-34.8-19.6-48.1c-13.1-13.2-29.4-19.8-48.9-19.8c-19.6,0-35.8,6.5-48.7,19.6
				c-12.9,13.1-19.4,29.2-19.4,48.3C806.4,815,812.9,831,826,844.2z"/>
		</g>
	</g>
	<g>
		<g>
			<path class="st2" d="M418.3,872.3c-23.8,0-43.6-7.3-59.5-21.8c-15.9-14.5-23.8-32.4-23.8-53.6c0-20.8,8-38.6,24-53.3
				c16-14.7,35.9-22.1,59.9-22.1c13.7,0,25.4,2,35.1,6c9.7,4,19.4,10,29.4,17.9l-8.1,7.3c-16.9-14.3-35.8-21.4-56.5-21.4
				c-20.1,0-36.9,6.3-50.4,18.8c-13.5,12.6-20.2,28.1-20.2,46.7c0,18.5,6.8,34,20.5,46.6c13.7,12.6,30.5,18.9,50.4,18.9
				c11.7,0,22-1.9,30.9-5.6c8.9-3.7,17.9-9.4,26.8-17.1l8.4,7.1c-9.7,8.3-19.8,14.6-30.2,18.9C444.4,870.2,432.2,872.3,418.3,872.3z
				"/>
		</g>
	</g>
	<g>
		<path class="st2" d="M551,871.7V732.5h-62.9v-10.2h139.3v10.2h-62.9v139.2H551z"/>
	</g>
</g>
<g>
	<g>
		<g>
			<path class="st2" d="M336.8,692.5V541.6H350v134.7l115.2-134.7h12.9v150.9h-13.2V557.8L350,692.5H336.8z"/>
		</g>
	</g>
	<g>
		<g>
			<path class="st2" d="M968.4,691.8V540.9h64.3c19.8,0,35.7,4.1,47.7,12.4c12.1,8.3,18.1,19.7,18.1,34.2c0,15.2-6.6,27.1-19.9,35.5
				c-13.3,8.4-29.7,12.6-49.3,12.6h-47.9v56.3H968.4z M981.5,625.2h48.6c16.5,0,29.9-3.4,40-10.2c10.1-6.8,15.2-15.9,15.2-27.3
				c0-11.6-4.9-20.6-14.6-26.9c-9.7-6.3-22.8-9.5-39.1-9.5h-50.1V625.2z"/>
		</g>
	</g>
	<g>
		<path class="st2" d="M623.7,691.8L504.9,557v134.7h-13.6V540.9h13.3l119.1,134.7V540.9h13.6v150.9H623.7z"/>
	</g>
	<g>
		<path class="st2" d="M709.7,691.9V551.3h-62.9V541h139.3v10.3h-62.9v140.5H709.7z"/>
	</g>
	<g>
		<path class="st2" d="M919.3,626.8c-15,0-30,0.2-45-0.1c-20.6-0.4-41.3,0-61.9-0.3c-2.9,0-3.6,0.5-3,3.6c5.7,31,33,53.7,64.6,54.1
			c26.1,0.3,46.1-10.2,59.9-32.3c1-1.6,2.1-2.1,3.8-2c2,0.1,4.1,0,6.1,0c4.7,0,4.8,0,2.4,4.3c-4.6,8.2-10.5,15.4-17.7,21.6
			c-16,14-35.1,19.1-55.9,18.6c-26.6-0.7-48.2-11.4-63.5-33.6c-20.3-29.4-17.2-69.6,7-96c17.8-19.4,40.3-26.4,65.9-24.9
			c29.1,1.7,50.9,15.6,64.9,41.1c7.3,13.3,9.5,27.7,8.3,42.8c-0.2,2.8-1.9,2.9-3.9,2.9c-10.7,0-21.4,0-32,0
			C919.3,626.7,919.3,626.7,919.3,626.8z"/>
		<path class="st3" d="M875.4,616.1c-21.2,0-42.5-0.1-63.7,0.1c-2.8,0-3.5-0.7-3.4-3.5c1.7-33,26.9-59.3,59.9-62.3
			c33.7-3.1,62.8,15.9,72.1,46.9c1.5,5,2.2,10,2.7,15.2c0.3,3-0.5,3.8-3.6,3.8C918.1,616,896.8,616.1,875.4,616.1z"/>
	</g>
</g>
</svg>
