<svg xmlns="http://www.w3.org/2000/svg" viewBox="0 0 1440.7 1440"><path fill="#fff" d="M0 0h1440.7v1440.7H0z"/><path d="M1159.9 469.1v472.3H280.8V469.1h879.1m26-26H254.8v524.3H1186V443.1h-.1z" fill="#0079c1"/><path d="M967.9 871.7V720.8h12.4v134.7L1089 720.8h12.2v150.9h-12.4V737L980.3 871.7h-12.4zm-319.9.1V720.9h64.3c19.8 0 35.7 4.1 47.7 12.4 12.1 8.3 18.1 19.7 18.1 34.2 0 15.2-6.6 27.1-19.9 35.5-13.3 8.4-29.7 12.6-49.3 12.6H661v56.3h-13zm13.1-66.6h48.6c16.5 0 29.9-3.4 40-10.2 10.1-6.8 15.2-15.9 15.2-27.3 0-11.6-4.9-20.6-14.6-26.9-9.7-6.3-22.8-9.5-39.1-9.5h-50.1v73.9zm271.6 45.9c-15.1 15.4-34.5 23.1-58.2 23.1-23.7 0-43-7.7-58-23S794 817.5 794 796.1c0-21.3 7.6-39.6 22.7-55 15.1-15.4 34.5-23.1 58.2-23.1 23.7 0 43 7.7 58 23s22.5 33.7 22.5 55.1c-.1 21.3-7.6 39.7-22.7 55zM826 844.2c13.1 13.2 29.4 19.8 48.9 19.8 19.6 0 35.8-6.5 48.7-19.6 12.9-13.1 19.4-29.2 19.4-48.3 0-18.8-6.5-34.8-19.6-48.1-13.1-13.2-29.4-19.8-48.9-19.8-19.6 0-35.8 6.5-48.7 19.6-12.9 13.1-19.4 29.2-19.4 48.3 0 18.9 6.5 34.9 19.6 48.1zm-407.7 28.1c-23.8 0-43.6-7.3-59.5-21.8-15.9-14.5-23.8-32.4-23.8-53.6 0-20.8 8-38.6 24-53.3 16-14.7 35.9-22.1 59.9-22.1 13.7 0 25.4 2 35.1 6 9.7 4 19.4 10 29.4 17.9l-8.1 7.3c-16.9-14.3-35.8-21.4-56.5-21.4-20.1 0-36.9 6.3-50.4 18.8-13.5 12.6-20.2 28.1-20.2 46.7 0 18.5 6.8 34 20.5 46.6 13.7 12.6 30.5 18.9 50.4 18.9 11.7 0 22-1.9 30.9-5.6 8.9-3.7 17.9-9.4 26.8-17.1l8.4 7.1c-9.7 8.3-19.8 14.6-30.2 18.9-10.6 4.6-22.8 6.7-36.7 6.7zm132.7-.6V732.5h-62.9v-10.2h139.3v10.2h-62.9v139.2H551zM336.8 692.5V541.6H350v134.7l115.2-134.7h12.9v150.9h-13.2V557.8L350 692.5h-13.2zm631.6-.7V540.9h64.3c19.8 0 35.7 4.1 47.7 12.4 12.1 8.3 18.1 19.7 18.1 34.2 0 15.2-6.6 27.1-19.9 35.5-13.3 8.4-29.7 12.6-49.3 12.6h-47.9v56.3h-13zm13.1-66.6h48.6c16.5 0 29.9-3.4 40-10.2 10.1-6.8 15.2-15.9 15.2-27.3 0-11.6-4.9-20.6-14.6-26.9-9.7-6.3-22.8-9.5-39.1-9.5h-50.1v73.9zm-357.8 66.6L504.9 557v134.7h-13.6V540.9h13.3l119.1 134.7V540.9h13.6v150.9h-13.6zm86 .1V551.3h-62.9V541h139.3v10.3h-62.9v140.5h-13.5zm209.6-65.1c-15 0-30 .2-45-.1-20.6-.4-41.3 0-61.9-.3-2.9 0-3.6.5-3 3.6 5.7 31 33 53.7 64.6 54.1 26.1.3 46.1-10.2 59.9-32.3 1-1.6 2.1-2.1 3.8-2 2 .1 4.1 0 6.1 0 4.7 0 4.8 0 2.4 4.3-4.6 8.2-10.5 15.4-17.7 21.6-16 14-35.1 19.1-55.9 18.6-26.6-.7-48.2-11.4-63.5-33.6-20.3-29.4-17.2-69.6 7-96 17.8-19.4 40.3-26.4 65.9-24.9 29.1 1.7 50.9 15.6 64.9 41.1 7.3 13.3 9.5 27.7 8.3 42.8-.2 2.8-1.9 2.9-3.9 2.9h-32v.2z" fill="#006aa9"/><path d="M875.4 616.1c-21.2 0-42.5-.1-63.7.1-2.8 0-3.5-.7-3.4-3.5 1.7-33 26.9-59.3 59.9-62.3 33.7-3.1 62.8 15.9 72.1 46.9 1.5 5 2.2 10 2.7 15.2.3 3-.5 3.8-3.6 3.8-21.3-.3-42.6-.2-64-.2z" fill="#fefefe"/></svg>