<svg width="806" height="484" viewBox="0 0 806 484" fill="none" xmlns="http://www.w3.org/2000/svg">
<path opacity="0.05" d="M784.79 3.66112C767.967 5.12557 751.877 8.7867 735.786 13.9123C694.096 27.8245 585.118 86.4025 593.163 180.127C589.506 178.663 586.581 176.466 582.924 174.269L582.192 173.537C560.982 158.893 543.428 131.068 561.713 100.315C574.878 79.0802 609.254 20.5023 609.986 19.7701L621.688 0L599.015 3.66112C596.82 3.66112 554.399 10.9834 526.606 28.5567C501.739 44.6657 443.227 88.5991 442.495 157.428C442.495 197.7 468.826 240.902 520.024 267.994C516.367 276.781 512.71 286.3 509.784 295.086H507.59C476.871 295.086 439.57 265.797 413.24 237.241C402.269 205.755 384.715 176.466 362.042 151.57C332.786 120.085 291.828 100.315 248.675 97.3858C261.109 85.6702 274.274 75.4191 288.902 66.6324L294.753 62.9713L294.022 55.6491C294.022 54.9168 294.022 53.4524 294.022 52.7201C294.022 37.3434 306.456 24.8956 321.815 24.8956C337.174 24.8956 349.608 37.3434 349.608 52.7201C349.608 62.9713 343.757 72.4902 334.98 76.8835C329.86 79.8124 327.666 85.6702 329.86 91.528C332.786 96.6535 338.637 98.8503 344.488 96.6536C344.488 96.6536 345.22 96.6536 345.22 95.9214C369.356 82.7413 378.133 52.7201 364.967 28.5567C351.802 4.39335 321.815 -4.39331 297.679 8.78672C282.319 16.8412 272.811 32.9501 272.08 50.5235C251.601 63.7035 233.316 79.0802 217.225 96.6536C178.461 139.123 162.37 186.717 170.416 234.312C171.147 239.437 175.535 243.098 180.655 243.098H182.849C188.701 242.366 192.358 236.508 191.626 230.651C190.895 224.793 190.163 218.935 190.163 213.077C288.171 220.399 340.831 276.781 340.831 327.304C340.831 383.685 294.022 421.029 266.96 437.87C254.526 445.192 240.63 451.05 226.733 454.711C238.436 435.673 254.526 408.581 261.84 395.401C283.051 360.254 272.811 319.25 235.51 292.89L234.779 292.157C213.568 278.245 188.701 272.387 163.102 275.316C138.234 278.245 115.561 292.157 100.933 312.66L0 482.536L21.2107 480.339C38.0328 478.874 54.1235 475.213 70.2142 470.088C111.904 456.175 220.151 398.33 212.837 303.873C216.494 305.337 219.419 307.534 223.076 309.731L223.808 310.463C245.018 325.107 262.572 352.932 244.287 383.685C231.122 404.92 196.746 463.498 196.015 464.23L183.581 484L206.254 480.339C208.448 480.339 250.869 473.017 278.662 455.443C303.53 439.334 362.042 395.401 362.773 326.572C362.773 286.3 336.443 243.098 285.245 216.006C288.902 207.952 292.559 199.897 294.753 191.843H297.679C334.249 191.843 375.938 226.989 392.76 246.027C393.492 246.759 393.492 247.492 394.223 247.492C412.508 298.747 456.392 378.56 556.593 387.346C544.16 399.062 530.995 409.313 516.367 418.1L509.784 421.761L510.516 429.083C511.978 444.46 501.007 458.372 485.648 459.837C470.289 461.301 456.392 450.318 454.929 434.941C453.466 423.958 459.318 412.974 468.826 407.849C473.946 404.92 475.408 398.33 472.483 393.204C469.557 388.811 463.706 386.614 458.586 389.543C434.45 402.723 425.673 432.744 438.838 456.908C452.004 481.071 481.991 489.858 506.127 476.678C521.486 468.623 530.995 452.514 531.726 434.941C552.205 421.761 570.49 406.384 586.581 388.811C625.345 346.342 641.436 298.747 633.39 251.153C632.659 245.295 627.539 240.902 621.688 241.634C615.837 242.366 611.448 247.492 612.18 253.349C612.18 254.082 612.18 254.082 612.18 254.814C612.911 260.672 613.643 266.53 613.643 272.387C515.635 264.333 462.975 208.684 462.975 158.16C462.975 100.315 514.904 61.5068 536.846 47.5946C549.28 40.2723 563.176 34.4146 577.804 30.7534C566.102 49.7913 550.011 76.8835 542.697 90.0636C521.486 125.21 531.726 166.215 569.027 191.843L569.759 192.575C590.969 206.487 615.837 212.345 641.436 209.416C666.303 206.487 688.976 192.575 703.604 172.073L806 1.46448L784.79 3.66112ZM150.668 399.062C125.8 422.493 95.8131 440.066 63.6317 451.782C56.3177 453.979 49.0037 456.175 41.6897 457.64L119.949 326.572C136.04 304.605 163.833 293.622 190.895 298.747C196.746 333.894 183.581 368.309 150.668 399.062ZM298.41 170.608C294.022 170.608 289.633 170.608 285.245 172.073C280.125 174.269 275.737 179.395 275.005 185.253C272.811 193.307 269.886 201.362 266.229 208.684C242.824 199.165 217.957 194.039 192.358 191.843C197.477 164.018 209.911 138.39 228.928 117.156C302.067 117.156 345.22 157.428 370.819 197.7C349.608 183.056 324.009 170.608 298.41 170.608ZM576.341 368.309C505.396 368.309 462.243 330.965 435.913 287.764C457.123 303.873 481.991 317.053 507.59 317.053C526.606 317.053 528.8 306.802 530.995 300.944C533.189 292.89 536.114 284.835 539.771 277.513C563.176 286.3 588.044 292.157 613.643 293.622C608.523 321.446 595.358 347.806 576.341 368.309ZM686.051 160.357C669.96 182.324 642.167 193.307 615.105 188.182C609.254 153.035 622.419 118.62 655.332 87.8669C680.2 64.4357 710.187 46.8624 742.368 35.1468C749.682 32.9501 756.996 30.7534 764.31 29.289L686.051 160.357Z" fill="white"/>
</svg>
