<svg width="806" height="484" fill="none" xmlns="http://www.w3.org/2000/svg"><path opacity=".05" d="M784.79 3.661c-16.823 1.465-32.913 5.126-49.004 10.251-41.69 13.912-150.668 72.49-142.623 166.215-3.657-1.464-6.582-3.661-10.239-5.858l-.732-.732c-21.21-14.644-38.764-42.469-20.479-73.222 13.165-21.235 47.541-79.813 48.273-80.545L621.688 0l-22.673 3.661c-2.195 0-44.616 7.322-72.409 24.896-24.867 16.109-83.379 60.042-84.111 128.871 0 40.272 26.331 83.474 77.529 110.566-3.657 8.787-7.314 18.306-10.24 27.092h-2.194c-30.719 0-68.02-29.289-94.35-57.845-10.971-31.486-28.525-60.775-51.198-85.671-29.256-31.485-70.214-51.255-113.367-54.184 12.434-11.716 25.599-21.967 40.227-30.754l5.851-3.66-.731-7.323V52.72c0-15.377 12.434-27.824 27.793-27.824s27.793 12.447 27.793 27.824c0 10.251-5.851 19.77-14.628 24.163-5.12 2.93-7.314 8.787-5.12 14.645 2.926 5.125 8.777 7.322 14.628 5.126 0 0 .732 0 .732-.733 24.136-13.18 32.913-43.2 19.747-67.364-13.165-24.164-43.152-32.95-67.288-19.77-15.36 8.054-24.868 24.163-25.599 41.736-20.479 13.18-38.764 28.557-54.855 46.13-38.764 42.47-54.855 90.064-46.809 137.659.731 5.125 5.119 8.786 10.239 8.786h2.194c5.852-.732 9.509-6.59 8.777-12.447-.731-5.858-1.463-11.716-1.463-17.574 98.008 7.322 150.668 63.704 150.668 114.227 0 56.381-46.809 93.725-73.871 110.566-12.434 7.322-26.33 13.18-40.227 16.841 11.703-19.038 27.793-46.13 35.107-59.31 21.211-35.147 10.971-76.151-26.33-102.511l-.731-.733c-21.211-13.912-46.078-19.77-71.677-16.841-24.868 2.929-47.541 16.841-62.169 37.344L0 482.536l21.21-2.197c16.823-1.465 32.913-5.126 49.004-10.251 41.69-13.913 149.937-71.758 142.623-166.215 3.657 1.464 6.582 3.661 10.239 5.858l.732.732c21.21 14.644 38.764 42.469 20.479 73.222-13.165 21.235-47.541 79.813-48.272 80.545L183.581 484l22.673-3.661c2.194 0 44.615-7.322 72.408-24.896 24.868-16.109 83.38-60.042 84.111-128.871 0-40.272-26.33-83.474-77.528-110.566 3.657-8.054 7.314-16.109 9.508-24.163h2.926c36.57 0 78.259 35.146 95.081 54.184.732.732.732 1.465 1.463 1.465 18.285 51.255 62.169 131.068 162.37 139.854-12.433 11.716-25.598 21.967-40.226 30.754l-6.583 3.661.732 7.322c1.462 15.377-9.509 29.289-24.868 30.754-15.359 1.464-29.256-9.519-30.719-24.896-1.463-10.983 4.389-21.967 13.897-27.092 5.12-2.929 6.582-9.519 3.657-14.645-2.926-4.393-8.777-6.59-13.897-3.661-24.136 13.18-32.913 43.201-19.748 67.365 13.166 24.163 43.153 32.95 67.289 19.77 15.359-8.055 24.868-24.164 25.599-41.737 20.479-13.18 38.764-28.557 54.855-46.13 38.764-42.469 54.855-90.064 46.809-137.658-.731-5.858-5.851-10.251-11.702-9.519-5.851.732-10.24 5.858-9.508 11.715v1.465c.731 5.858 1.463 11.716 1.463 17.573-98.008-8.054-150.668-63.703-150.668-114.227 0-57.845 51.929-96.653 73.871-110.565 12.434-7.323 26.33-13.18 40.958-16.842-11.702 19.038-27.793 46.13-35.107 59.31-21.211 35.147-10.971 76.152 26.33 101.78l.732.732c21.21 13.912 46.078 19.77 71.677 16.841 24.867-2.929 47.54-16.841 62.168-37.343L806 1.464l-21.21 2.197zM150.668 399.062c-24.868 23.431-54.855 41.004-87.036 52.72-7.314 2.197-14.628 4.393-21.942 5.858l78.259-131.068c16.091-21.967 43.884-32.95 70.946-27.825 5.851 35.147-7.314 69.562-40.227 100.315zM298.41 170.608c-4.388 0-8.777 0-13.165 1.465-5.12 2.196-9.508 7.322-10.24 13.18-2.194 8.054-5.119 16.109-8.776 23.431-23.405-9.519-48.272-14.645-73.871-16.841 5.119-27.825 17.553-53.453 36.57-74.687 73.139 0 116.292 40.272 141.891 80.544-21.211-14.644-46.81-27.092-72.409-27.092zm277.931 197.701c-70.945 0-114.098-37.344-140.428-80.545 21.21 16.109 46.078 29.289 71.677 29.289 19.016 0 21.21-10.251 23.405-16.109 2.194-8.054 5.119-16.109 8.776-23.431 23.405 8.787 48.273 14.644 73.872 16.109-5.12 27.824-18.285 54.184-37.302 74.687zm109.71-207.952c-16.091 21.967-43.884 32.95-70.946 27.825-5.851-35.147 7.314-69.562 40.227-100.315 24.868-23.431 54.855-41.005 87.036-52.72 7.314-2.197 14.628-4.394 21.942-5.858l-78.259 131.068z" fill="#fff"/></svg>